<svg xmlns="http://www.w3.org/2000/svg" version="1.1" xmlns:xlink="http://www.w3.org/1999/xlink" xmlns:svgjs="http://svgjs.com/svgjs" width="1440" height="560" preserveAspectRatio="none" viewBox="0 0 1440 560"><g mask="url(&quot;#SvgjsMask1009&quot;)" fill="none"><rect width="1440" height="560" x="0" y="0" fill="#0e2a47" data-darkreader-inline-fill="" style="--darkreader-inline-fill:#0b2239;"></rect><path d="M922 341L921 591" stroke-width="8" stroke="url(#SvgjsLinearGradient1010)" stroke-linecap="round" class="Up"></path><path d="M1397 17L1396 172" stroke-width="10" stroke="url(#SvgjsLinearGradient1011)" stroke-linecap="round" class="Down"></path><path d="M1238 256L1237 644" stroke-width="10" stroke="url(#SvgjsLinearGradient1010)" stroke-linecap="round" class="Up"></path><path d="M1311 27L1310 -221" stroke-width="8" stroke="url(#SvgjsLinearGradient1011)" stroke-linecap="round" class="Down"></path><path d="M1415 442L1414 760" stroke-width="10" stroke="url(#SvgjsLinearGradient1011)" stroke-linecap="round" class="Down"></path><path d="M788 9L787 405" stroke-width="10" stroke="url(#SvgjsLinearGradient1010)" stroke-linecap="round" class="Up"></path><path d="M851 163L850 451" stroke-width="6" stroke="url(#SvgjsLinearGradient1010)" stroke-linecap="round" class="Up"></path><path d="M569 327L568 137" stroke-width="8" stroke="url(#SvgjsLinearGradient1010)" stroke-linecap="round" class="Up"></path><path d="M1346 389L1345 634" stroke-width="6" stroke="url(#SvgjsLinearGradient1011)" stroke-linecap="round" class="Down"></path><path d="M881 496L880 251" stroke-width="10" stroke="url(#SvgjsLinearGradient1010)" stroke-linecap="round" class="Up"></path><path d="M409 70L408 301" stroke-width="10" stroke="url(#SvgjsLinearGradient1010)" stroke-linecap="round" class="Up"></path><path d="M1088 503L1087 89" stroke-width="8" stroke="url(#SvgjsLinearGradient1011)" stroke-linecap="round" class="Down"></path><path d="M730 172L729 -177" stroke-width="8" stroke="url(#SvgjsLinearGradient1010)" stroke-linecap="round" class="Up"></path><path d="M813 400L812 162" stroke-width="8" stroke="url(#SvgjsLinearGradient1010)" stroke-linecap="round" class="Up"></path><path d="M552 513L551 928" stroke-width="6" stroke="url(#SvgjsLinearGradient1011)" stroke-linecap="round" class="Down"></path><path d="M895 336L894 -50" stroke-width="8" stroke="url(#SvgjsLinearGradient1010)" stroke-linecap="round" class="Up"></path><path d="M606 483L605 803" stroke-width="10" stroke="url(#SvgjsLinearGradient1011)" stroke-linecap="round" class="Down"></path><path d="M922 195L921 360" stroke-width="6" stroke="url(#SvgjsLinearGradient1011)" stroke-linecap="round" class="Down"></path><path d="M1074 129L1073 462" stroke-width="10" stroke="url(#SvgjsLinearGradient1011)" stroke-linecap="round" class="Down"></path><path d="M496 175L495 -203" stroke-width="8" stroke="url(#SvgjsLinearGradient1011)" stroke-linecap="round" class="Down"></path><path d="M416 81L415 481" stroke-width="6" stroke="url(#SvgjsLinearGradient1011)" stroke-linecap="round" class="Down"></path><path d="M106 111L105 -271" stroke-width="6" stroke="url(#SvgjsLinearGradient1011)" stroke-linecap="round" class="Down"></path><path d="M635 314L634 636" stroke-width="10" stroke="url(#SvgjsLinearGradient1010)" stroke-linecap="round" class="Up"></path><path d="M947 328L946 530" stroke-width="8" stroke="url(#SvgjsLinearGradient1010)" stroke-linecap="round" class="Up"></path><path d="M1305 545L1304 266" stroke-width="8" stroke="url(#SvgjsLinearGradient1011)" stroke-linecap="round" class="Down"></path><path d="M1191 360L1190 613" stroke-width="8" stroke="url(#SvgjsLinearGradient1010)" stroke-linecap="round" class="Up"></path><path d="M198 454L197 687" stroke-width="8" stroke="url(#SvgjsLinearGradient1011)" stroke-linecap="round" class="Down"></path><path d="M373 507L372 143" stroke-width="10" stroke="url(#SvgjsLinearGradient1011)" stroke-linecap="round" class="Down"></path><path d="M1266 300L1265 -18" stroke-width="8" stroke="url(#SvgjsLinearGradient1010)" stroke-linecap="round" class="Up"></path><path d="M66 197L65 -115" stroke-width="6" stroke="url(#SvgjsLinearGradient1011)" stroke-linecap="round" class="Down"></path><path d="M173 99L172 290" stroke-width="6" stroke="url(#SvgjsLinearGradient1011)" stroke-linecap="round" class="Down"></path><path d="M665 371L664 7" stroke-width="8" stroke="url(#SvgjsLinearGradient1011)" stroke-linecap="round" class="Down"></path><path d="M1407 452L1406 297" stroke-width="10" stroke="url(#SvgjsLinearGradient1010)" stroke-linecap="round" class="Up"></path><path d="M908 279L907 603" stroke-width="8" stroke="url(#SvgjsLinearGradient1010)" stroke-linecap="round" class="Up"></path><path d="M302 345L301 -59" stroke-width="6" stroke="url(#SvgjsLinearGradient1011)" stroke-linecap="round" class="Down"></path><path d="M598 16L597 -339" stroke-width="8" stroke="url(#SvgjsLinearGradient1010)" stroke-linecap="round" class="Up"></path></g><defs><mask id="SvgjsMask1009"><rect width="1440" height="560" fill="#ffffff" data-darkreader-inline-fill="" style="--darkreader-inline-fill:#181a1b;"></rect></mask><linearGradient x1="0%" y1="100%" x2="0%" y2="0%" id="SvgjsLinearGradient1010"><stop stop-color="rgba(28, 83, 142, 0)" offset="0" data-darkreader-inline-stopcolor="" style="--darkreader-inline-stopcolor:rgba(22, 66, 114, 0);"></stop><stop stop-color="#1c538e" offset="1" data-darkreader-inline-stopcolor="" style="--darkreader-inline-stopcolor:#164272;"></stop></linearGradient><linearGradient x1="0%" y1="0%" x2="0%" y2="100%" id="SvgjsLinearGradient1011"><stop stop-color="rgba(28, 83, 142, 0)" offset="0" data-darkreader-inline-stopcolor="" style="--darkreader-inline-stopcolor:rgba(22, 66, 114, 0);"></stop><stop stop-color="#1c538e" offset="1" data-darkreader-inline-stopcolor="" style="--darkreader-inline-stopcolor:#164272;"></stop></linearGradient></defs></svg>